<?xml version="1.0" encoding="UTF-8"?>
<svg width="94px" height="88px" viewBox="0 0 94 88" version="1.1" xmlns="http://www.w3.org/2000/svg" xmlns:xlink="http://www.w3.org/1999/xlink">
    <!-- Generator: Sketch 64 (93537) - https://sketch.com -->
    <title>画板</title>
    <desc>Created with Sketch.</desc>
    <g id="画板" stroke="none" stroke-width="1" fill="none" fill-rule="evenodd">
        <g id="ued" fill-rule="nonzero">
            <path d="M57.6498631,11.4314891 L57.7251604,11.5080775 C57.7603231,11.5440563 57.7953269,11.5802373 57.8301698,11.6166199 C58.7418002,12.5654775 59.5130949,13.6210092 60.1350443,14.7496929 L85.6650846,58.9675005 C86.8608357,60.8457403 87.650179,63.0079728 87.909281,65.3303642 C88.564464,71.083731 85.8374021,76.9461022 80.5025046,80.0262067 C77.8719781,81.5449419 74.9726514,82.1763643 72.1511031,82.0133395 L21.8539061,82.0133395 C19.0323579,82.1763643 16.1330311,81.5449419 13.5025046,80.0262067 C8.1676072,76.9461022 5.4405452,71.083731 6.095967,65.3301193 C6.3548302,63.0079728 7.1441736,60.8457403 8.3399247,58.9675005 L33.869965,14.7496929 C34.4919143,13.6210092 35.263209,12.5654775 36.1750888,11.6157913 C36.2096824,11.5802373 36.2446861,11.5440563 36.2798489,11.5080775 C36.3047917,11.4823291 36.3299174,11.4568694 36.3551461,11.4314891 L36.4314891,11.3551461 C36.4568694,11.3299174 36.4823291,11.3047917 36.5078675,11.2797691 C36.5440563,11.2446861 36.5802373,11.2096824 36.6166199,11.1748394 C37.8229245,10.0160108 39.2010679,9.0840707 40.6830813,8.3972587 C40.7149146,8.3828062 40.7461951,8.368365 40.7775041,8.3540404 C40.8241714,8.3326565 40.8715284,8.3113986 40.9189868,8.2903895 C40.9931998,8.2571584 41.0671152,8.2249719 41.1411769,8.1934264 C41.1614344,8.185578 41.1818093,8.1770002 41.2022018,8.1684679 C43.0724187,7.3807207 45.0346228,7.0014806 46.9771104,7.0000043 L47.0278989,7.0000043 C48.9703865,7.0014806 50.9325905,7.3807207 52.8028985,8.167631 C52.8232,8.1770002 52.8435749,8.185578 52.8639319,8.1942011 C52.937894,8.2249719 53.0118094,8.2571584 53.0855715,8.289988 C53.1334809,8.3113986 53.1808379,8.3326565 53.2280913,8.3541624 C53.2588142,8.368365 53.2900947,8.3828062 53.3213461,8.3973643 C54.8039413,9.0840707 56.1820848,10.0160108 57.3892179,11.1750888 C57.4247719,11.2096824 57.4609529,11.2446861 57.4969318,11.2798489 C57.5226802,11.3047917 57.5481399,11.3299174 57.5735202,11.3551461 L57.6498631,11.4314891 L57.6498631,11.4314891 Z" id="形状结合" fill="#AB8C8C"></path>
            <g id="编组-4" transform="translate(6.000000, 52.000000)" fill="#1981FE">
                <g id="blue">
                    <rect id="矩形" x="0" y="0" width="82" height="30" rx="15"></rect>
                </g>
            </g>
            <g id="编组-4" style="mix-blend-mode: overlay;" transform="translate(59.990381, 44.500000) rotate(-120.000000) translate(-59.990381, -44.500000) translate(18.990381, 29.500000)" fill="#FD4A59">
                <g id="red">
                    <rect id="矩形" x="0" y="0" width="82" height="30" rx="15"></rect>
                </g>
            </g>
            <g id="编组-4" style="mix-blend-mode: overlay;" transform="translate(34.689334, 44.305095) rotate(120.000000) translate(-34.689334, -44.305095) translate(-6.810666, 28.805095)" fill="#FEC218">
                <g id="yellow" transform="translate(1.008650, 0.991198)">
                    <rect id="矩形" x="-7.10542736e-15" y="-3.55271368e-14" width="82" height="30" rx="15"></rect>
                </g>
            </g>
        </g>
        <path d="M73.0077706,52.0001651 C78.265244,52.0001651 82.8909448,54.7051053 85.5691145,58.7992273 L85.9865176,59.5233443 C88.6532555,64.1422699 88.5841436,69.5899869 86.2819724,73.9900552 L86.1526929,74.2296466 C83.5997662,78.8611828 78.6701897,81.9988546 73.0077706,81.9988546 L72.1303293,81.9990014 C67.2621978,81.7128388 62.6274829,79.0616884 60.0068904,74.522689 L47.004,52 L73.0077706,52.0001651 Z" id="形状结合" fill="#314CFD" fill-rule="nonzero"></path>
        <path d="M46.998,52 L33.9935538,74.5244201 C31.3799737,79.0512736 26.7630371,81.700369 21.9091911,81.9983883 L20.9922235,81.9988719 C15.2249415,81.9988719 10.2178961,78.7439122 7.70791985,73.9708253 L7.57454695,73.7095256 C5.41458164,69.3602724 5.40391124,64.0457199 8.01391159,59.5250667 L8.44195745,58.7823103 C11.1217961,54.6976555 15.7419935,52.0001651 20.9922235,52.0001651 L46.998,52 Z" id="形状结合" fill="#31C2FD" fill-rule="nonzero"></path>
        <path d="M47.2233719,7.01565944 L47.2956357,7.01602794 L47.2956357,7.01602794 C52.3651688,7.12391869 57.2575215,9.80069224 59.9781789,14.513009 L60.2935623,15.0582169 C62.5882302,19.4543567 62.6545684,24.8938592 59.9914541,29.5065084 L47,52.008 L34.0083819,29.5066783 C31.342653,24.8895004 31.4117387,19.4438447 33.7130388,15.0454413 L34.0216571,14.5128391 C36.7550178,9.77851961 41.6804014,7.0987964 46.7756586,7.01550276 L46.7043705,7.01619465 C46.8775137,7.01301476 47.0505405,7.01284341 47.2233719,7.01565944 Z" id="形状结合" fill="#FE8A13" fill-rule="nonzero"></path>
    </g>
</svg>